<svg width="85" height="85" viewBox="0 0 85 85" fill="none" xmlns="http://www.w3.org/2000/svg">
<path d="M42.1369 2.40225C20.1337 2.40225 2.26196 20.2738 2.26196 42.2769C2.26196 64.2801 20.1335 82.1465 42.1369 82.1465C64.14 82.1467 82.0117 64.2799 82.0117 42.2769C82.0117 20.2738 64.1401 2.40225 42.1368 2.40225H42.1369ZM42.1369 5.50442C62.4632 5.50442 78.9094 21.9506 78.9094 42.2769C78.9094 45.2585 78.5553 48.1558 77.8872 50.9304L70.4321 49.4884L67.0238 37.6027L66.7954 36.7985L65.9912 36.5495L56.3518 33.5717L45.2444 12.2178L44.4558 10.6977L43.019 11.6314L27.8959 21.4678L27.4085 21.7844L27.2475 22.3445L19.2894 50.1317L7.63174 55.0186C6.16748 51.0491 5.36463 46.7588 5.36463 42.2769C5.36463 21.9506 21.8108 5.50442 42.1371 5.50442H42.1369ZM42.2717 15.8181L33.5509 33.1825L36.2434 55.5014L51.2055 45.2187V55.6727L47.2937 56.7103L50.7543 78.0323C47.9908 78.6944 45.1048 79.0442 42.1368 79.0442C27.3924 79.0442 14.6894 70.392 8.82473 57.8822L21.1773 52.6997L21.8623 52.4141L22.0698 51.6983L30.0696 23.7612L42.2717 15.8181Z" fill="#073548"/>
</svg>
